Coordinates
version=1
nRows=14
nColumns=28
inDegrees=yes

Units are S.I. units (second, meters, Newtons, ...)
Angles are in degrees.

endheader
time	pelvis_tilt	pelvis_list	pelvis_rotation	pelvis_tx	pelvis_ty	pelvis_tz	hip_flexion_r	hip_adduction_r	hip_rotation_r	knee_angle_r	ankle_angle_r	subtalar_angle_r	mtp_angle_r	hip_flexion_l	hip_adduction_l	hip_rotation_l	knee_angle_l	socket_flexion	socket_adduction	socket_rotation	socket_tx	socket_ty	socket_tz	foot_flex	lumbar_extension	lumbar_bending	lumbar_rotation
      0.63333333	     -2.59540102	      0.55871046	      9.99945123	     -0.01192790	      0.98830715	      0.26185178	     27.60651096	     -2.36206103	     -9.07699343	     -7.73813845	     18.07084172	    -17.90278691	    -22.27607573	    -17.66509725	     -1.47704758	     18.04338677	     -8.81349966	      0.00000000	      0.00000000	      0.00000000	      0.00000000	      0.00077490	      0.00000000	      7.70402317	     -9.05002940	     -0.76018945	     -6.89954621
      0.63750000	     -2.63849623	      0.61417282	      9.90018879	     -0.01188477	      0.98820316	      0.26199507	     27.73817232	     -2.40145572	     -9.11157655	     -7.89082999	     17.97914206	    -17.67605558	    -21.82714228	    -17.64699468	     -1.38301158	     17.97020865	     -8.80494671	      0.00000000	      0.00000000	      0.00000000	      0.00000000	      0.00086977	      0.00000000	      7.73749650	     -8.99981195	     -0.85548426	     -6.79414934
      0.64166667	     -2.58298288	      0.45424947	      9.97933551	     -0.00545973	      0.98730370	      0.26218419	     27.96755463	     -2.23742007	     -9.02467978	     -8.87634260	     17.62390645	    -17.76017106	    -21.24804714	    -17.84791297	     -1.59294982	     17.88021163	     -9.17968974	      0.00000000	      0.00000000	      0.00000000	      0.00000000	      0.00077665	      0.00000000	      7.64912132	     -8.98493000	     -0.59368681	     -6.80016567
      0.64583333	     -2.55119441	      0.37774594	     10.05659648	      0.00124004	      0.98636038	      0.26220376	     28.25591687	     -2.23508540	     -9.38537608	     -9.90247696	     15.40417439	    -17.64800404	    -12.60643303	    -18.02756602	     -1.68885097	     17.89796027	     -9.63371468	      0.00000000	      0.00000000	      0.00000000	      0.00000000	      0.00090596	      0.00000000	      7.64557955	     -8.89181852	     -0.38983664	     -6.84522912
      0.65000000	     -2.46223620	      0.25454875	     10.05102848	      0.00773051	      0.98560539	      0.26255227	     28.43568702	     -2.05849276	     -9.22376999	    -10.87249021	     15.00490469	    -17.68117504	    -12.59669244	    -18.25428862	     -1.83781628	     17.80692372	    -10.05139207	      0.00000000	      0.00000000	      0.00000000	      0.00000000	      0.00095280	      0.00000000	      7.46464034	     -8.90105462	     -0.15468799	     -6.85143032
      0.65416667	     -2.37088091	      0.10318549	     10.00186965	      0.01424735	      0.98484531	      0.26292761	     28.65160061	     -1.84644175	     -9.08985731	    -11.90855400	     14.57997508	    -17.69704664	    -12.51754746	    -18.46145627	     -1.98849249	     17.62732177	    -10.52441206	      0.00000000	      0.00000000	      0.00000000	      0.00000000	      0.00099310	      0.00000000	      7.33904908	     -8.89984841	      0.10532940	     -6.82503707
      0.65833333	     -2.28815542	     -0.04396056	     10.04098652	      0.02064064	      0.98421959	      0.26319120	     28.77568558	     -1.65605734	     -8.86133541	    -12.77696965	     14.25478641	    -17.65530807	    -12.47598001	    -18.58506416	     -2.15019232	     17.60256908	    -11.09647233	      0.00000000	      0.00000000	      0.00000000	      0.00000000	      0.00100365	      0.00000000	      7.16716670	     -8.92518607	      0.37912707	     -6.79568366
      0.66250000	     -2.18448579	     -0.22305321	      9.88862072	      0.02734441	      0.98343375	      0.26368533	     29.06507720	     -1.40706189	     -8.85160399	    -13.99643170	     13.74133643	    -17.67668909	    -12.34545925	    -18.81733510	     -2.29806444	     17.25949234	    -11.57196566	      0.00000000	      0.00000000	      0.00000000	      0.00000000	      0.00101650	      0.00000000	      7.00854476	     -8.89762507	      0.66528229	     -6.75172431
      0.66666667	     -2.09521861	     -0.37686792	      9.95044012	      0.03379125	      0.98293971	      0.26390162	     29.13493925	     -1.22300466	     -8.61630548	    -14.79325834	     13.47194099	    -17.61020179	    -12.27896370	    -18.88395233	     -2.45707218	     17.19808137	    -12.25482753	      0.00000000	      0.00000000	      0.00000000	      0.00000000	      0.00108452	      0.00000000	      6.76373221	     -8.90949478	      0.93393059	     -6.69968888
      0.67083333	     -1.98272516	     -0.59398408	      9.72877957	      0.04051070	      0.98224036	      0.26447581	     29.44403490	     -0.91669799	     -8.64252055	    -16.07494030	     12.95550166	    -17.59655846	    -12.09807234	    -19.08256498	     -2.60714336	     16.80228902	    -12.80803429	      0.00000000	      0.00000000	      0.00000000	      0.00000000	      0.00108567	      0.00000000	      6.54871582	     -8.90737207	      1.26613916	     -6.61910079
      0.67500000	     -1.88572809	     -0.79638621	      9.61659639	      0.04722918	      0.98170790	      0.26492667	     29.61005978	     -0.64071950	     -8.53999122	    -17.08532201	     12.59951746	    -17.51840937	    -11.87696800	    -19.17933645	     -2.75986337	     16.52166407	    -13.49963293	      0.00000000	      0.00000000	      0.00000000	      0.00000000	      0.00114413	      0.00000000	      6.26965407	     -8.88493470	      1.57565604	     -6.49613348
      0.67916667	     -1.91495654	     -0.99535041	      9.42150371	      0.05439557	      0.98082952	      0.26529051	     29.98036509	     -0.47389329	     -8.86760849	    -18.20126388	     10.34287710	    -17.54332205	     -2.83970993	    -19.19920287	     -2.85514612	     16.10564465	    -14.15350767	      0.00000000	      0.00000000	      0.00000000	      0.00000000	      0.00118088	      0.00000000	      5.96818909	     -8.64672115	      1.83558416	     -6.12912949
      0.68333333	     -1.78201885	     -1.16312879	      9.42749944	      0.06094054	      0.98063369	      0.26560137	     29.98264191	     -0.25889179	     -8.71405487	    -19.00431549	     10.12176490	    -17.51868464	     -2.85384547	    -19.21203149	     -2.99349309	     16.01057181	    -15.01044564	      0.00000000	      0.00000000	      0.00000000	      0.00000000	      0.00139982	      0.00000000	      5.63389336	     -8.70427543	      2.11309908	     -6.09955557
      0.68750000	     -1.62955389	     -1.36739183	      9.31935213	      0.06755190	      0.98037104	      0.26603350	     30.05811077	      0.01031006	     -8.66547688	    -19.98267879	      9.84241857	    -17.50375999	     -2.86531986	    -19.25605761	     -3.13356952	     15.75295327	    -15.87824568	      0.00000000	      0.00000000	      0.00000000	      0.00000000	      0.00150798	      0.00000000	      5.27386058	     -8.78349554	      2.44099818	     -6.06483404
